<svg xmlns="http://www.w3.org/2000/svg" viewBox="0 0 800 360" fill="none">
  <rect width="800" height="360" fill="#171717"/>
  <rect x="0.5" y="0.5" width="799" height="359" stroke="#1F1F1F"/>
  <!-- Grid pattern -->
  <g opacity="0.15">
    <line x1="100" y1="0" x2="100" y2="360" stroke="#22C55E" stroke-width="0.5"/>
    <line x1="200" y1="0" x2="200" y2="360" stroke="#22C55E" stroke-width="0.5"/>
    <line x1="300" y1="0" x2="300" y2="360" stroke="#22C55E" stroke-width="0.5"/>
    <line x1="400" y1="0" x2="400" y2="360" stroke="#22C55E" stroke-width="0.5"/>
    <line x1="500" y1="0" x2="500" y2="360" stroke="#22C55E" stroke-width="0.5"/>
    <line x1="600" y1="0" x2="600" y2="360" stroke="#22C55E" stroke-width="0.5"/>
    <line x1="700" y1="0" x2="700" y2="360" stroke="#22C55E" stroke-width="0.5"/>
    <line x1="0" y1="60" x2="800" y2="60" stroke="#22C55E" stroke-width="0.5"/>
    <line x1="0" y1="120" x2="800" y2="120" stroke="#22C55E" stroke-width="0.5"/>
    <line x1="0" y1="180" x2="800" y2="180" stroke="#22C55E" stroke-width="0.5"/>
    <line x1="0" y1="240" x2="800" y2="240" stroke="#22C55E" stroke-width="0.5"/>
    <line x1="0" y1="300" x2="800" y2="300" stroke="#22C55E" stroke-width="0.5"/>
  </g>

  <!-- Astro site box (left) -->
  <rect x="60" y="110" width="130" height="80" rx="6" stroke="#22C55E" stroke-width="1.5" fill="#22C55E" fill-opacity="0.05"/>
  <text x="125" y="138" text-anchor="middle" fill="#22C55E" font-family="monospace" font-size="11" font-weight="bold">Astro Site</text>
  <text x="125" y="155" text-anchor="middle" fill="#737373" font-family="monospace" font-size="9">Layout.astro</text>
  <text x="125" y="168" text-anchor="middle" fill="#737373" font-family="monospace" font-size="9">meta tags</text>
  <text x="125" y="181" text-anchor="middle" fill="#737373" font-family="monospace" font-size="9">JSON-LD</text>

  <!-- Arrow 1 -->
  <line x1="190" y1="150" x2="240" y2="120" stroke="#22C55E" stroke-width="1.5" opacity="0.6"/>
  <polygon points="237,115 247,118 240,125" fill="#22C55E" opacity="0.6"/>
  <line x1="190" y1="150" x2="240" y2="150" stroke="#22C55E" stroke-width="1.5" opacity="0.6"/>
  <polygon points="240,145 250,150 240,155" fill="#22C55E" opacity="0.6"/>
  <line x1="190" y1="150" x2="240" y2="180" stroke="#22C55E" stroke-width="1.5" opacity="0.6"/>
  <polygon points="237,185 247,182 240,175" fill="#22C55E" opacity="0.6"/>

  <!-- Sitemap box -->
  <rect x="250" y="85" width="120" height="50" rx="6" stroke="#22C55E" stroke-width="1.5" fill="#22C55E" fill-opacity="0.05"/>
  <text x="310" y="107" text-anchor="middle" fill="#22C55E" font-family="monospace" font-size="11" font-weight="bold">Sitemap</text>
  <text x="310" y="122" text-anchor="middle" fill="#737373" font-family="monospace" font-size="9">sitemap.xml</text>

  <!-- OG / Twitter box -->
  <rect x="250" y="145" width="120" height="50" rx="6" stroke="#22C55E" stroke-width="1.5" fill="#22C55E" fill-opacity="0.05"/>
  <text x="310" y="167" text-anchor="middle" fill="#22C55E" font-family="monospace" font-size="11" font-weight="bold">OG + Twitter</text>
  <text x="310" y="182" text-anchor="middle" fill="#737373" font-family="monospace" font-size="9">social cards</text>

  <!-- RSS box -->
  <rect x="250" y="205" width="120" height="50" rx="6" stroke="#22C55E" stroke-width="1.5" fill="#22C55E" fill-opacity="0.05"/>
  <text x="310" y="227" text-anchor="middle" fill="#22C55E" font-family="monospace" font-size="11" font-weight="bold">RSS</text>
  <text x="310" y="242" text-anchor="middle" fill="#737373" font-family="monospace" font-size="9">rss.xml</text>

  <!-- Arrows to search engines -->
  <line x1="370" y1="110" x2="450" y2="140" stroke="#22C55E" stroke-width="1.5" opacity="0.6"/>
  <line x1="370" y1="170" x2="450" y2="155" stroke="#22C55E" stroke-width="1.5" opacity="0.6"/>
  <line x1="370" y1="230" x2="450" y2="170" stroke="#22C55E" stroke-width="1.5" opacity="0.6"/>
  <polygon points="450,135 460,140 450,145" fill="#22C55E" opacity="0.6"/>

  <!-- Search engines / crawlers box -->
  <rect x="460" y="115" width="140" height="80" rx="6" stroke="#22C55E" stroke-width="1.5" fill="#22C55E" fill-opacity="0.05"/>
  <text x="530" y="143" text-anchor="middle" fill="#22C55E" font-family="monospace" font-size="11" font-weight="bold">Crawlers</text>
  <text x="530" y="158" text-anchor="middle" fill="#737373" font-family="monospace" font-size="9">Google / Bing</text>
  <text x="530" y="171" text-anchor="middle" fill="#737373" font-family="monospace" font-size="9">robots.txt</text>
  <text x="530" y="184" text-anchor="middle" fill="#737373" font-family="monospace" font-size="9">structured data</text>

  <!-- Arrow to SERP -->
  <line x1="600" y1="155" x2="640" y2="155" stroke="#22C55E" stroke-width="1.5" opacity="0.6"/>
  <polygon points="640,150 650,155 640,160" fill="#22C55E" opacity="0.6"/>

  <!-- SERP / rich results -->
  <rect x="650" y="120" width="100" height="70" rx="6" stroke="#22C55E" stroke-width="1.5" fill="#22C55E" fill-opacity="0.05"/>
  <text x="700" y="148" text-anchor="middle" fill="#22C55E" font-family="monospace" font-size="11" font-weight="bold">SERP</text>
  <text x="700" y="163" text-anchor="middle" fill="#737373" font-family="monospace" font-size="9">rich snippets</text>
  <text x="700" y="176" text-anchor="middle" fill="#737373" font-family="monospace" font-size="9">knowledge graph</text>

  <!-- Canonical URL dashed line -->
  <line x1="125" y1="110" x2="125" y2="64" stroke="#22C55E" stroke-width="1" opacity="0.3" stroke-dasharray="4 4"/>
  <text x="125" y="56" text-anchor="middle" fill="#525252" font-family="monospace" font-size="9">canonical URLs // no duplicate content</text>

  <!-- Schema.org label -->
  <rect x="300" y="280" width="220" height="36" rx="4" stroke="#22C55E" stroke-width="1" stroke-dasharray="4 4" fill="none" opacity="0.3"/>
  <text x="410" y="302" text-anchor="middle" fill="#525252" font-family="monospace" font-size="9">schema.org // Person + BlogPosting</text>

  <!-- Bottom label -->
  <text x="400" y="340" text-anchor="middle" fill="#525252" font-family="monospace" font-size="12">astro build → seo artifacts // zero-plugin approach</text>
</svg>
